<?xml version="1.0" encoding="UTF-8" standalone="no"?>
<svg
   xmlns:dc="http://purl.org/dc/elements/1.1/"
   xmlns:cc="http://creativecommons.org/ns#"
   xmlns:rdf="http://www.w3.org/1999/02/22-rdf-syntax-ns#"
   xmlns:svg="http://www.w3.org/2000/svg"
   xmlns="http://www.w3.org/2000/svg"
   xml:space="preserve"
   viewBox="0 0 612 438"
   height="438px"
   width="612px"
   y="0px"
   x="0px"
   id="Layer_1"
   version="1.1"><metadata
     id="metadata112"><rdf:RDF><cc:Work
         rdf:about=""><dc:format>image/svg+xml</dc:format><dc:type
           rdf:resource="http://purl.org/dc/dcmitype/StillImage" /><dc:title></dc:title></cc:Work></rdf:RDF></metadata><defs
     id="defs110" /><g
     id="g3"><g
       id="g5"><g
         id="g7"><g
           id="g9"><g
             id="g11"><path
               d="M203.557,9c-2.832-0.047-4.484,0.212-5.484,0.18       c-18.661-0.517-32.149,8.494-41.138,17.971c-12.22,12.884-15.502,23.595-16.624,63.96       c-1.477,63.871-3.463,103.62,34.92,150.841c27.86,32.163,79.018,75.365,94.952,75.365       c-11.976-11.754-38.297-34.516-52.245-53.521c-27.504-39.911-36.693-71.722-35.576-125.722       c0.579-23.293,6.075-35.924,9.918-43.321c3.842-7.407,7.79-12.519,12.25-17.534c4.462-5.015,18.786-16.376,46.828-17.754       c41.165-2.034,66.393-17.758,93.85-34.847c-7.197,0.834-21.394,2.179-29.88,2.202c-18.013,0.051-31.995-2.314-43.483-4.32       c-12.396-2.17-29.766-3.98-42.01-8.019C216.24,10.003,208.273,9.078,203.557,9z"
               fill="#78BEE8"
               id="path8515_2_" /><path
               d="       M414.104,9.031c-67.029,1.457-67.187,52.718-163.421,58.775c6.005,2.087,47.926,10.832,60.16,10.784       c13.794-0.046,25.125-2.898,33.835-4.834c7.192-1.598,13.607-3.843,20.793-6.154c14.902-4.783,36.85,6.625,43.339,14.542       c11.974,14.616,17.967,20.563,18.771,55.734c1.063,55.653-9.511,88.442-35.57,129.576       c-13.527,21.108-25.889,37.883-37.625,50.394c16.491,0,52.241-36.988,78.776-72.088       c36.368-48.663,33.794-90.457,32.398-156.283c-1.061-41.604-0.058-49.726-11.341-63.288       C442.701,12.353,428.21,8.554,414.104,9.031z"
               fill="#016197"
               id="path4294-8-4-2-3-4-1-1-8_2_" /></g></g><g
           id="g15"
           opacity="0.15"><g
             id="g17"><g
               id="g19"><path
                 id="path21"
                 d="M322.107,26.77c-21.856,12.865-44.604,23.282-77.573,24.9c-28.042,1.385-42.366,12.747-46.826,17.765        c-4.458,5.015-8.408,10.126-12.251,17.531c-3.843,7.4-9.339,20.027-9.917,43.324c-1.118,53.99,7.285,85.809,34.793,125.718        c5.31,7.24,12.41,15.013,19.829,22.519c-4.554-4.936-8.762-9.865-12.211-14.559c-27.503-39.92-36.694-71.729-35.579-125.722        c0.578-23.293,6.074-35.922,9.917-43.326c3.843-7.401,7.79-12.514,12.25-17.528c4.463-5.014,18.787-16.382,46.827-17.76        c41.167-2.03,66.393-17.756,93.85-34.847C339.711,25.421,330.123,26.35,322.107,26.77z"
                 fill="#010101" /><path
                 id="path23"
                 d="M261.759,309.458c-14.055-1.137-51.384-31.004-79.247-59.279        c28.717,30.861,73.053,67.302,87.691,67.302C267.869,315.192,264.985,312.474,261.759,309.458z"
                 fill="#010101" /></g><g
               id="g25"><path
                 id="path27"
                 d="M465.575,89.646c-1.067-41.604-0.059-49.729-11.342-63.284c-1.289-1.555-2.639-2.946-4.002-4.254        c8.242,11.674,7.54,21.891,8.505,59.585c1.4,65.826,3.191,107.624-33.177,156.286c-16.374,21.656-36.242,44.009-52.943,57.97        c-6.271,8.439-12.317,15.798-18.209,22.074c16.488,0,52.231-36.99,78.767-72.091        C469.544,197.269,466.968,155.466,465.575,89.646z"
                 fill="#010101" /><path
                 id="path29"
                 d="M365.479,67.77c13.557-4.353,32.902,4.686,41.186,12.316c-1.447-1.811-2.994-3.683-4.672-5.728        c-6.494-7.925-28.443-19.337-43.346-14.542c-7.185,2.308-13.596,4.552-20.785,6.15c-8.718,1.935-20.041,4.783-33.835,4.834        c-6.341,0.023-20.648-2.319-33.811-4.865c-6.058,0.885-12.509,1.589-19.519,2.032c6.004,2.089,47.924,10.828,60.157,10.786        c13.799-0.047,25.121-2.899,33.835-4.834C351.889,72.322,358.297,70.081,365.479,67.77z"
                 fill="#010101" /></g></g></g></g><g
         id="g31"><g
           id="g33"><g
             id="g35"><radialGradient
               gradientUnits="userSpaceOnUse"
               gradientTransform="matrix(1 0 0 -1 0 422)"
               r="147.574"
               cy="189.3501"
               cx="387.3896"
               id="SVGID_1_"><stop
                 id="stop38"
                 style="stop-color:#217CBB"
                 offset="0" /><stop
                 id="stop40"
                 style="stop-color:#3795D2"
                 offset="1" /></radialGradient><path
               id="path42"
               d="M391.94,155.032c-6.677-10.44-29.576-2.934-53.353,18.434c-0.036-0.046-0.065-0.109-0.105-0.157       c-9.075,7.711-19.945,11.879-31.09,11.909c-9.47-0.016-18.736-3.015-26.884-8.642c-23.22-19.785-50.287-31.482-56.666-21.508       c-6.423,10.037,10.441,38.354,32.83,59.798c-3.802,12.561-5.447,25.786-5.817,47.222c0,11.267,36.509,18.608,57.284,18.634       c20.768,0.021,55.885-8.117,55.885-17.325c-2.018-20.214-3.757-32.749-7.58-46.299c2.007-1.637,4.002-3.318,5.987-5.114       C386.374,190.256,398.662,165.545,391.94,155.032z"
               fill="url(#SVGID_1_)" /><radialGradient
               gradientUnits="userSpaceOnUse"
               gradientTransform="matrix(1 0 0 -1 0 422)"
               r="73.803"
               cy="263.0518"
               cx="332.4326"
               id="path4166-5-1_1_"><stop
                 id="stop45"
                 style="stop-color:#217CBB"
                 offset="0" /><stop
                 id="stop47"
                 style="stop-color:#3795D2"
                 offset="1" /></radialGradient><path
               d="M347.178,133.905       c0,21.977-17.811,39.787-39.785,39.787c-21.978,0-39.792-17.813-39.792-39.787s17.814-39.786,39.792-39.786       C329.367,94.119,347.178,111.932,347.178,133.905z"
               fill="url(#path4166-5-1_1_)"
               id="path4166-5-1_2_" /><path
               id="path50"
               d="M259.802,267.523c-1.305,1.334-2.487-0.438-3.042-2.615       c-0.478-1.88-0.172-4.692-0.156-6.605c0.193-18.137,2.388-32.649,6.053-43.187c2.856-8.203,5.355-19.845,11.434-28.621       c0.48-0.689,1.616-1.834,2.727-1.959c1.095-0.108,1.296-0.142,1.568,0.651c0.222,0.633-3.149,8.617-3.368,9.307       c-2.932,9.26-5.853,20.386-8.722,29.46c-2.899,9.185-4.127,19.549-6.033,38.643       C260.074,264.484,260.779,266.521,259.802,267.523z"
               fill="#FFFFFF"
               opacity="0.1" /><path
               id="path52"
               d="M278.191,153.445c-3.983-5.743-6.242-12.669-6.242-19.999       c0-19.341,15.732-35.081,35.083-35.081c3.22,0,6.403,0.454,9.455,1.313c-22.119,2.566-39.346,21.409-39.346,44.209       C277.143,147.114,277.496,150.323,278.191,153.445z"
               fill="#FFFFFF"
               opacity="0.1" /></g><path
             id="path54"
             d="M315.094,94.879c12.193,6.8,20.446,19.806,20.446,34.755      c0,21.977-17.814,39.789-39.792,39.789c-2.639,0-5.21-0.267-7.7-0.76c5.726,3.196,12.32,5.039,19.345,5.039      c21.975,0,39.785-17.82,39.785-39.789C347.178,114.572,333.384,98.467,315.094,94.879z"
             fill="#010101"
             opacity="0.1" /></g><path
           id="path56"
           d="M393.202,157.841c-5.432,20.31-15.468,29.789-37.421,49.693     c-0.596,0.539-1.198,1.04-1.798,1.557c-2.533-7.646-5.793-16.061-10.161-26.592c-1.447-3.509-3.264-6.541-5.34-9.19     c-1.225,1.035-2.485,2-3.765,2.907c0.197,0.439,0.435,0.815,0.621,1.262c14.08,33.956,16.711,45.952,20.19,80.896     c0,9.205-35.106,17.354-55.882,17.323c-13.467-0.015-33.491-3.117-45.952-8.366c8.898,8.242,37.106,13.365,54.439,13.391     c20.768,0.021,55.882-8.128,55.882-17.333c-1.999-20.057-3.729-32.556-7.489-45.975c1.971-1.617,3.944-3.276,5.892-5.046     c23.955-21.72,30.644-41.495,31.105-46.596C393.798,162.756,393.772,160.061,393.202,157.841z"
           fill="#010101"
           opacity="0.1" /><path
           id="path58"
           d="M272.92,175.205c-13.917-9.51-27.612-15.46-36.673-15.46c-4.888,0-8.462,1.663-10.623,4.93     c-0.867-3.701-0.619-6.149,0.181-7.398c1.159-1.811,3.804-2.187,5.819-2.187C241.192,155.09,257.507,163.202,272.92,175.205z"
           fill="#FFFFFF"
           opacity="0.1" /><path
           id="path60"
           d="M389.002,157.245c-1.699-2.655-5.062-3.215-7.584-3.215     c-10.187,0-25.863,8.445-41.097,22.044c0.946,1.458,1.813,3.017,2.599,4.686c15.917-13.813,31.854-22.049,43.082-22.049     c1.338,0,2.598,0.118,3.789,0.353C389.605,158.377,389.339,157.779,389.002,157.245z"
           fill="#FFFFFF"
           opacity="0.1" /></g></g><g
       id="g62"><g
         id="g64"><path
           id="path66"
           d="M42.324,410.12l1.284-18.809l1.376-36.932c0.031-1.489,0.045-3.679,0.045-6.572     c3.831,0.065,7.104,0.092,9.812,0.092c1.704,0,4.336-0.026,7.895-0.092c3.559-0.063,6.084-0.09,7.578-0.09     c5.081,0,9.34,0.396,12.779,1.188c2.616,0.573,5.012,1.599,7.188,3.062c2.175,1.457,4.113,3.368,5.819,5.727     c1.705,2.357,2.968,4.951,3.787,7.781c0.975,3.407,1.462,6.967,1.462,10.682c0,5.081-0.899,9.962-2.695,14.632     c-1.794,4.671-4.466,8.567-8.009,11.688c-3.546,3.12-7.518,5.175-11.913,6.161c-4.4,0.991-9.307,1.485-14.723,1.485l-12.74-0.093     C50.452,410.025,47.468,410.059,42.324,410.12z M51.135,404.004c3.708,0.091,7.16,0.136,10.352,0.136     c2.673,0,5.402-0.128,8.185-0.389c2.781-0.26,5.275-0.739,7.478-1.438c2.206-0.699,4.369-1.953,6.499-3.764     c2.128-1.812,3.868-3.868,5.221-6.163c1.353-2.301,2.367-4.872,3.034-7.717c0.668-2.847,1.001-5.726,1.001-8.65     c0-3.285-0.425-6.328-1.277-9.128c-0.852-2.802-2.305-5.327-4.356-7.581c-2.057-2.253-4.491-3.75-7.306-4.498     c-2.816-0.742-6.536-1.114-11.163-1.114c-5.69,0-10.894,0.042-15.614,0.134L51.135,404.004z"
           fill="#010101" /></g><g
         id="g68"><path
           id="path70"
           d="M148.144,402.86c-0.366,1.674-0.731,3.806-1.097,6.39c-2.922,0.729-5.455,1.224-7.601,1.481     c-2.146,0.261-4.283,0.394-6.414,0.394c-3.803,0-7.22-0.457-10.249-1.371c-3.027-0.912-5.623-2.501-7.783-4.771     c-2.159-2.267-3.713-4.861-4.656-7.782c-0.943-2.924-1.414-6.009-1.414-9.269c0-4.536,0.868-8.739,2.602-12.622     s4.343-6.931,7.829-9.153c3.484-2.224,7.904-3.333,13.259-3.333c2.771,0,5.419,0.403,7.947,1.21     c2.526,0.808,4.624,2.033,6.301,3.675c1.672,1.645,2.967,3.68,3.879,6.095c0.913,2.42,1.37,5.063,1.37,7.92     c0,1.098-0.092,2.158-0.273,3.197h-34.831c-0.123,1.674-0.183,2.953-0.183,3.836c0,3.195,0.668,6.14,2.009,8.835     c1.339,2.693,3.319,4.731,5.935,6.118c2.618,1.383,5.629,2.074,9.04,2.074C137.735,405.779,142.511,404.809,148.144,402.86z      M117.374,381.129h27.208c-0.031-1.916-0.151-3.404-0.366-4.473c-0.213-1.064-0.608-2.168-1.186-3.311     c-0.579-1.141-1.364-2.129-2.35-2.968c-0.99-0.837-2.179-1.475-3.562-1.915c-1.386-0.445-2.886-0.663-4.497-0.663     c-1.735,0-3.387,0.243-4.952,0.729c-1.571,0.488-2.954,1.157-4.157,2.012c-1.203,0.85-2.221,1.849-3.059,2.989     c-0.836,1.142-1.46,2.247-1.87,3.309C118.174,377.908,117.771,379.335,117.374,381.129z"
           fill="#010101" /></g><g
         id="g72"><path
           id="path74"
           d="M159.647,410.12c1.454-19.084,2.212-34.496,2.276-46.243l4.111,0.043c1.003,0,2.33-0.017,3.977-0.043     l-0.606,9.129c0.761-1.279,1.371-2.257,1.827-2.942c0.457-0.687,1.064-1.409,1.828-2.172c0.762-0.76,1.658-1.468,2.693-2.12     c1.035-0.656,2.252-1.204,3.655-1.646c1.397-0.441,2.823-0.77,4.27-0.983c1.447-0.211,2.882-0.319,4.313-0.319     c2.617,0,5.145,0.319,7.581,0.958c2.436,0.637,4.437,1.685,6.002,3.128c1.57,1.446,2.62,3.065,3.153,4.861     c0.531,1.798,0.799,3.729,0.799,5.799c0,0.395-0.017,1.157-0.044,2.283c-0.033,1.124-0.092,2.604-0.182,4.426l-0.905,19.129     c-0.062,1.825-0.108,4.063-0.138,6.71c-1.371-0.063-2.666-0.092-3.884-0.092c-1.496,0-2.896,0.033-4.208,0.092     c0.31-3.682,0.54-7.229,0.691-10.638l0.599-10.636c0.185-3.654,0.276-6.403,0.276-8.264c0-2.672-0.456-4.816-1.37-6.414     c-0.915-1.595-2.376-2.827-4.387-3.697c-2.013-0.863-4.267-1.298-6.765-1.298c-3.534,0-6.565,0.838-9.092,2.509     c-2.315,1.553-4.114,3.76-5.394,6.618c-0.883,2.045-1.51,5.054-1.875,9.041c-0.466,4.775-0.791,12.37-0.974,22.781     c-1.7-0.062-3.018-0.095-3.957-0.095S161.554,410.059,159.647,410.12z"
           fill="#010101" /></g><g
         id="g76"><path
           id="path78"
           d="M239.628,404.092c-0.334,1.492-0.701,3.471-1.096,5.934c-2.07,0.488-3.715,0.793-4.93,0.916     c-1.219,0.121-2.375,0.184-3.47,0.184c-2.71,0-4.893-0.343-6.55-1.028c-1.662-0.684-2.931-1.779-3.811-3.284     c-0.883-1.509-1.325-3.555-1.325-6.143c0-0.335,0.015-0.929,0.044-1.781c0.032-0.85,0.187-3.817,0.466-8.903l1.114-20.448h-6.099     c0.124-1.28,0.231-3.104,0.321-5.48h6.223c0.152-1.705,0.306-4.611,0.461-8.722c2.852-0.545,5.264-1.063,7.237-1.551     c-0.211,4.506-0.33,7.927-0.36,10.272h12.688c-0.153,1.913-0.244,3.743-0.274,5.477h-12.638l-1.218,25.701l-0.045,1.963     c0,2.224,0.25,3.888,0.75,5.002c0.5,1.11,1.253,1.909,2.255,2.396c1.005,0.485,2.051,0.729,3.146,0.729     c0.76,0,1.58-0.06,2.46-0.184C235.86,405.022,237.41,404.669,239.628,404.092z"
           fill="#010101" /></g><g
         id="g80"><path
           id="path82"
           d="M249.259,371.229c0.275-1.345,0.562-3.32,0.869-5.941c3.652-0.941,6.827-1.586,9.52-1.939     c2.691-0.348,5.317-0.524,7.876-0.524c2.735,0,5.303,0.256,7.689,0.755c2.387,0.504,4.372,1.317,5.96,2.443     c1.582,1.126,2.633,2.419,3.146,3.878c0.515,1.46,0.777,3.028,0.777,4.704c0,2.1-0.157,5.625-0.477,10.568     c-0.316,4.946-0.561,9.517-0.724,13.716c-0.168,4.199-0.252,7.943-0.252,11.232c-1.643-0.062-2.984-0.095-4.019-0.095     c-0.976,0-2.361,0.033-4.16,0.095l0.971-12.465l0.692-14.744c-1.067,0.822-1.864,1.398-2.399,1.734     c-0.533,0.337-1.135,0.648-1.804,0.939c-0.673,0.289-1.41,0.562-2.217,0.82c-0.81,0.259-2.375,0.706-4.706,1.347     c-2.332,0.642-3.982,1.128-4.957,1.463c-2.102,0.666-3.761,1.339-4.978,2.012c-1.219,0.665-2.239,1.394-3.062,2.188     c-0.822,0.79-1.402,1.58-1.737,2.373c-0.393,0.975-0.594,1.993-0.594,3.059c0,1.644,0.487,3.07,1.461,4.287     c0.976,1.222,2.2,2.065,3.674,2.537c1.477,0.47,3.253,0.706,5.319,0.706c1.279,0,2.619-0.088,4.019-0.27     c1.4-0.176,3.271-0.637,5.616-1.376c-0.427,1.182-0.915,2.99-1.463,5.435c-2.22,0.427-4.031,0.69-5.432,0.801     c-1.401,0.104-2.723,0.158-3.974,0.158c-4.167,0-7.422-0.492-9.768-1.464c-2.344-0.976-4.093-2.456-5.249-4.453     c-1.156-1.991-1.734-4.162-1.734-6.503c0-1.371,0.204-2.632,0.615-3.789c0.41-1.158,0.966-2.208,1.667-3.148     c0.697-0.945,1.695-1.894,2.99-2.835c1.292-0.942,2.647-1.717,4.063-2.327c1.415-0.607,3.067-1.211,4.954-1.805     c1.887-0.59,4.916-1.391,9.084-2.396c1.341-0.301,2.484-0.616,3.428-0.938c0.942-0.317,1.781-0.63,2.511-0.932     c0.732-0.303,1.37-0.665,1.918-1.074c0.549-0.41,1.049-0.914,1.508-1.506c0.455-0.591,0.793-1.193,1.003-1.8     c0.214-0.61,0.322-1.217,0.322-1.83c0-1.489-0.487-2.769-1.46-3.833c-0.976-1.064-2.246-1.813-3.816-2.239     c-1.566-0.424-3.414-0.638-5.545-0.638c-1.977,0-4.01,0.159-6.096,0.479c-2.082,0.323-3.879,0.699-5.382,1.141     C253.391,369.681,251.512,370.342,249.259,371.229z"
           fill="#010101" /></g><g
         id="g84"><path
           id="path86"
           d="M290.708,389.073c0.242-2.251,0.366-4.272,0.366-6.071c4.228,0.154,8.019,0.229,11.366,0.229     c3.256,0,7.047-0.074,11.367-0.229c-0.211,2.129-0.335,4.156-0.364,6.071c-3.806-0.151-7.621-0.226-11.459-0.226     C298.332,388.848,294.574,388.919,290.708,389.073z"
           fill="#010101" /></g><g
         id="g88"><path
           id="path90"
           d="M319.057,410.12l0.975-8.447l2.858-34.007l1.386-19.859c2.311,0.033,4.313,0.046,6.012,0.046     c1.576,0,3.491-0.017,5.735-0.046l1.053,3.973c0.304,1.063,0.684,2.313,1.137,3.747c0.457,1.427,1.246,3.819,2.372,7.165     l5.614,16.208l6.98,21.729l9.079-21.729l10.352-23.741c0.365-0.852,0.72-1.756,1.075-2.715c0.343-0.957,0.902-2.503,1.662-4.636     c1.978,0.032,4.031,0.049,6.159,0.049c1.703,0,3.651-0.017,5.844-0.049l-0.577,21.779l-0.245,14.284     c-0.029,1.342-0.047,2.677-0.047,4.02l0.047,10.454v5.887c0,0.669,0.033,2.632,0.092,5.891c-2.007-0.061-3.344-0.093-4.017-0.093     c-0.943,0-2.329,0.032-4.156,0.093l0.274-5.8l0.684-32.863c0.095-3.685,0.139-7.777,0.139-12.28l-0.044-3.745l-20.022,48.068     l-2.649,6.62c-1.978-0.061-3.366-0.093-4.159-0.093c-0.951,0-2.409,0.032-4.397,0.093l-5.417-17.209l-5.604-16.938l-5.556-16.342     c-0.24-0.733-0.65-2.041-1.228-3.931l-0.56,5.343l-2.788,39.257c-0.063,1.308-0.117,2.618-0.165,3.929     c-0.04,1.307-0.095,3.269-0.161,5.889l-3.819-0.095C322.367,410.025,321.059,410.059,319.057,410.12z"
           fill="#010101" /></g><g
         id="g92"><path
           id="path94"
           d="M402.003,371.229c0.278-1.345,0.567-3.32,0.874-5.941c3.646-0.941,6.824-1.586,9.514-1.939     c2.693-0.348,5.322-0.524,7.877-0.524c2.737,0,5.304,0.256,7.69,0.755c2.39,0.504,4.375,1.317,5.961,2.443     c1.583,1.126,2.632,2.419,3.151,3.878c0.519,1.46,0.774,3.028,0.774,4.704c0,2.1-0.158,5.625-0.476,10.568     c-0.318,4.946-0.559,9.517-0.724,13.716c-0.168,4.199-0.256,7.943-0.256,11.232c-1.645-0.062-2.982-0.095-4.018-0.095     c-0.976,0-2.364,0.033-4.162,0.095l0.973-12.465l0.69-14.744c-1.064,0.822-1.864,1.398-2.398,1.734     c-0.533,0.337-1.133,0.648-1.805,0.939c-0.669,0.289-1.408,0.562-2.215,0.82c-0.812,0.259-2.376,0.706-4.708,1.347     c-2.331,0.642-3.983,1.128-4.956,1.463c-2.103,0.666-3.761,1.339-4.981,2.012c-1.218,0.665-2.237,1.394-3.061,2.188     c-0.821,0.79-1.399,1.58-1.735,2.373c-0.395,0.975-0.593,1.993-0.593,3.059c0,1.644,0.487,3.07,1.462,4.287     c0.974,1.222,2.2,2.065,3.677,2.537c1.473,0.47,3.25,0.706,5.315,0.706c1.279,0,2.621-0.088,4.017-0.27     c1.403-0.176,3.275-0.637,5.618-1.376c-0.424,1.182-0.915,2.99-1.463,5.435c-2.222,0.427-4.031,0.69-5.431,0.801     c-1.403,0.104-2.727,0.158-3.973,0.158c-4.168,0-7.425-0.492-9.767-1.464c-2.347-0.976-4.101-2.456-5.253-4.453     c-1.158-1.991-1.735-4.162-1.735-6.503c0-1.371,0.208-2.632,0.614-3.789c0.413-1.158,0.968-2.208,1.669-3.148     c0.698-0.945,1.701-1.894,2.99-2.835c1.295-0.942,2.646-1.717,4.061-2.327c1.418-0.607,3.067-1.211,4.96-1.805     c1.886-0.59,4.913-1.391,9.083-2.396c1.342-0.301,2.479-0.616,3.425-0.938c0.947-0.317,1.784-0.63,2.516-0.932     c0.726-0.303,1.365-0.665,1.915-1.074c0.544-0.41,1.048-0.914,1.51-1.506c0.456-0.591,0.788-1.193,1.001-1.8     c0.212-0.61,0.321-1.217,0.321-1.83c0-1.489-0.485-2.769-1.462-3.833c-0.976-1.064-2.244-1.813-3.812-2.239     c-1.568-0.424-3.418-0.638-5.549-0.638c-1.978,0-4.01,0.159-6.093,0.479c-2.087,0.323-3.886,0.699-5.392,1.141     C406.138,369.681,404.259,370.342,402.003,371.229z"
           fill="#010101" /></g><g
         id="g96"><path
           id="path98"
           d="M472.077,404.092c-0.332,1.492-0.698,3.471-1.096,5.934c-2.069,0.488-3.714,0.793-4.927,0.916     c-1.221,0.121-2.377,0.184-3.47,0.184c-2.711,0-4.897-0.343-6.553-1.028c-1.656-0.684-2.932-1.779-3.813-3.284     c-0.88-1.509-1.318-3.555-1.318-6.143c0-0.335,0.012-0.929,0.043-1.781c0.029-0.85,0.188-3.817,0.465-8.903l1.115-20.448h-6.101     c0.124-1.28,0.226-3.104,0.317-5.48h6.226c0.149-1.705,0.31-4.611,0.46-8.722c2.852-0.545,5.267-1.063,7.236-1.551     c-0.207,4.506-0.328,7.927-0.357,10.272h12.688c-0.154,1.913-0.242,3.743-0.279,5.477h-12.635l-1.221,25.701l-0.041,1.963     c0,2.224,0.25,3.888,0.75,5.002c0.505,1.11,1.254,1.909,2.254,2.396c1.007,0.485,2.056,0.729,3.148,0.729     c0.756,0,1.579-0.06,2.463-0.184C468.31,405.022,469.858,404.669,472.077,404.092z"
           fill="#010101" /></g><g
         id="g100"><path
           id="path102"
           d="M512.798,403.18c-0.059,0.487-0.219,1.392-0.482,2.714c-0.256,1.325-0.475,2.625-0.657,3.905     c-2.226,0.519-4.357,0.869-6.415,1.051c-2.054,0.182-3.859,0.275-5.41,0.275c-3.284,0-6.323-0.444-9.108-1.326     c-2.781-0.878-5.211-2.334-7.28-4.357c-2.069-2.02-3.589-4.533-4.564-7.533c-0.977-2.996-1.459-6.153-1.459-9.472     c0-4.473,0.786-8.718,2.372-12.732c1.582-4.02,4.076-7.172,7.485-9.451c3.411-2.283,8.053-3.426,13.922-3.426     c4.324,0,8.539,0.579,12.646,1.733c0.184,2.592,0.351,4.72,0.501,6.392c-2.891-0.914-5.244-1.528-7.072-1.847     c-1.827-0.322-3.517-0.48-5.069-0.48c-2.679,0-5.076,0.487-7.19,1.46c-2.116,0.979-3.921,2.36-5.408,4.156     c-1.492,1.797-2.566,3.927-3.221,6.39c-0.654,2.466-0.979,4.976-0.979,7.531c0,3.441,0.525,6.455,1.596,9.038     c1.064,2.591,2.925,4.591,5.593,6.004c2.665,1.414,5.65,2.124,8.97,2.124C504.793,405.324,508.536,404.61,512.798,403.18z"
           fill="#010101" /></g><g
         id="g104"><path
           id="path106"
           d="M523.16,410.12l1.137-19.86l1.049-27.068l0.275-15.388l4.158,0.045c1.038,0,2.391-0.013,4.061-0.045     l-1.001,15.868l-0.362,9.46c0.731-1.309,1.363-2.346,1.894-3.123c0.534-0.774,1.221-1.549,2.058-2.326     c0.833-0.773,1.707-1.437,2.621-1.981c0.913-0.548,1.934-1.026,3.059-1.438c1.126-0.409,2.482-0.753,4.064-1.024     c1.58-0.275,3.239-0.411,4.976-0.411c2.588,0,5.062,0.289,7.411,0.866c2.365,0.578,4.387,1.535,6.071,2.873     c1.693,1.339,2.848,2.937,3.469,4.789c0.629,1.855,0.939,3.739,0.939,5.654c0,0.763-0.014,1.767-0.043,3.014     c-0.092,1.887-0.213,4.087-0.362,6.612l-0.769,16.786c-0.09,1.822-0.145,4.059-0.178,6.7c-1.77-0.061-3.129-0.093-4.068-0.093     c-1.038,0-2.489,0.032-4.35,0.093c0.336-3.283,0.728-8.452,1.169-15.505c0.446-7.055,0.669-11.95,0.669-14.688     c0-2.431-0.441-4.442-1.323-6.036c-0.885-1.596-2.342-2.822-4.382-3.67c-2.043-0.854-4.307-1.281-6.806-1.281     c-2.285,0-4.411,0.355-6.393,1.05c-1.791,0.644-3.322,1.535-4.588,2.69c-1.26,1.16-2.273,2.569-3.036,4.24     c-0.823,1.796-1.4,3.604-1.736,5.424c-0.517,2.89-0.881,6.904-1.094,12.04c-0.123,3.072-0.288,8.313-0.501,15.734     c-1.707-0.062-2.986-0.095-3.841-0.095C526.621,410.025,525.199,410.059,523.16,410.12z"
           fill="#010101" /></g></g></g></svg>