<?xml version='1.0' encoding='utf-8'?>
<svg xmlns="http://www.w3.org/2000/svg" viewBox="0 0 212.39 166.00999" id="svg2" height="166.00999mm" width="212.39mm" version="1.0"> <metadata id="metadata14"> </metadata> <defs id="defs4"> <clipPath id="clipEmfPath1" clipPathUnits="userSpaceOnUse"> <path id="path7" d="m 0.449699,-0.449699 752.946301,0 0,588.206699 -752.946301,0 z"/> </clipPath> <pattern y="0" x="0" height="6" width="6" patternUnits="userSpaceOnUse" id="EMFhbasepattern"/> </defs> <path transform="scale(0.28222222,0.28222222)" id="path10" d="m 425.565,400.719 c -13.866,0 -25.108,7.795 -25.108,17.464 0,9.668 11.242,17.5 25.108,17.5 13.866,0 25.071,-7.832 25.071,-17.5 0,-9.669 -11.205,-17.464 -25.071,-17.464 z m -99.271,0 c -13.866,0 -25.071,7.795 -25.071,17.464 0,9.668 11.205,17.5 25.071,17.5 13.866,0 25.108,-7.832 25.108,-17.5 0,-9.669 -11.242,-17.464 -25.108,-17.464 z m 222.264,-90.427 c -24.846,0 -44.97,20.124 -44.97,44.97 0,24.846 20.124,44.97 44.97,44.97 24.808,0 44.97,-20.124 44.97,-44.97 0,-24.846 -20.162,-44.97 -44.97,-44.97 z M 203.639,293.953 c -34.29,0 -62.096,27.807 -62.096,62.096 0,34.327 27.806,62.134 62.096,62.134 34.327,0 62.133,-27.807 62.133,-62.134 0,-34.289 -27.806,-62.096 -62.133,-62.096 z m 404.879,-62.77 c -2.886,-0.263 -5.697,0.15 -8.282,1.386 -10.306,4.91 -13.042,20.761 -6.109,35.377 6.933,14.652 20.949,22.56 31.292,17.65 10.305,-4.909 13.041,-20.723 6.108,-35.376 -5.209,-10.98 -14.39,-18.175 -23.009,-19.037 z m -60.672,-30.317 c -2.886,-0.3 -5.696,0.149 -8.282,1.349 -10.306,4.909 -13.041,20.761 -6.109,35.413 6.971,14.653 20.949,22.523 31.292,17.651 10.306,-4.909 13.041,-20.761 6.108,-35.414 -5.209,-10.98 -14.39,-18.175 -23.009,-18.999 z m 62.545,-38.037 c -2.848,-0.263 -5.658,0.149 -8.244,1.386 -10.343,4.872 -13.079,20.724 -6.108,35.376 6.932,14.653 20.948,22.56 31.254,17.651 10.343,-4.909 13.078,-20.761 6.108,-35.376 -5.209,-11.018 -14.39,-18.176 -23.01,-19.037 z M 147.426,149.937 c -24.808,0 -44.97,20.124 -44.97,44.97 0,24.846 20.162,44.97 44.97,44.97 24.846,0 44.97,-20.124 44.97,-44.97 0,-24.846 -20.124,-44.97 -44.97,-44.97 z m 219.903,-2.736 -5.246,0.787 c -31.292,6.409 -54.826,34.103 -54.826,67.305 0,33.203 23.534,60.897 54.826,67.305 l 5.246,0.825 0,-40.623 -31.479,0 c -1.574,0 -2.848,-1.312 -2.848,-2.886 l 0,-11.429 c 0,-1.574 1.274,-2.886 2.848,-2.886 l 45.795,0 c 1.573,0 2.885,1.312 2.885,2.886 l 0,0 0,11.429 0,43.509 5.247,-0.825 c 31.291,-6.408 54.825,-34.102 54.825,-67.305 0,-33.202 -23.534,-60.896 -54.825,-67.305 l -5.247,-0.787 0,40.548 31.479,0 c 1.574,0 2.848,1.312 2.848,2.886 l 0,11.43 c 0,1.574 -1.274,2.885 -2.848,2.885 l -34.215,0 -0.149,0.038 -11.43,0 c -1.574,0 -2.886,-1.274 -2.886,-2.848 l 0,-0.075 0,-11.43 z m 182.653,-15.027 c -2.886,-0.3 -5.696,0.15 -8.282,1.349 -10.306,4.909 -13.041,20.761 -6.109,35.414 6.933,14.653 20.949,22.522 31.292,17.651 10.306,-4.91 13.041,-20.762 6.108,-35.414 -5.209,-10.98 -14.39,-18.176 -23.009,-19 z m -174.071,-2.736 c 47.443,0 85.892,38.45 85.892,85.855 0,47.444 -38.449,85.893 -85.892,85.893 -47.406,0 -85.855,-38.449 -85.855,-85.893 0,-47.405 38.449,-85.855 85.855,-85.855 z m -0.038,-4.871 c -50.253,0 -90.989,40.735 -90.989,90.989 0,50.254 40.736,90.989 90.989,90.989 50.254,0 90.989,-40.735 90.989,-90.989 0,-50.254 -40.735,-90.989 -90.989,-90.989 z M 638.46,107.216 c -2.136,-0.225 -4.235,0.075 -6.146,1.012 -7.645,3.635 -9.593,15.552 -4.309,26.682 5.246,11.092 15.739,17.163 23.384,13.528 7.682,-3.635 9.594,-15.589 4.347,-26.682 -3.972,-8.357 -10.83,-13.828 -17.276,-14.54 z M 601.922,0.0749498 C 656.486,46.9561 700.069,101.107 720.68,166.014 c 21.323,61.121 26.008,123.892 31.142,186.887 1.986,61.384 1.161,141.955 -6.671,179.917 -8.282,25.708 -17.688,37.138 -43.733,49.018 -14.016,5.583 -30.13,6.295 -44.595,4.159 L 552.155,459.442 c -49.766,29.044 -91.251,43.884 -151.81,49.13 l -23.497,1.424 -23.46,-1.424 c -60.559,-5.246 -102.044,-20.086 -151.81,-49.13 L 96.9101,585.995 C 82.4448,588.131 66.3306,587.419 52.315,581.836 26.2699,569.956 16.8637,558.526 8.58176,532.818 0.749498,494.856 -0.0749498,414.285 1.91122,352.901 7.04528,289.906 11.7296,227.135 33.0529,166.014 53.6641,101.107 97.2099,46.9561 151.811,0.0749498 L 167.513,17.5757 183.252,5.32144 209.447,21.0609 c 0.3,-2.4733 1.349,-7.495 3.785,-6.9329 l 9.294,3.5976 0,-0.0374 c 0,-0.4872 0.375,-0.8994 0.899,-0.8994 l 3.561,0 c 0.524,0 0.899,0.4122 0.899,0.8994 l 0,2.136 4.497,1.7614 13.828,4.9841 0.862,-0.8619 3.598,0 c 0.487,0 0.899,0.4122 0.899,0.8994 l 0,1.9112 12.742,4.5719 4.122,1.2367 0.899,-0.8994 3.56,0 c 0.525,0 0.9,0.4122 0.9,0.8994 l 0,1.574 14.727,4.3096 3.823,0.8619 0.862,-0.8619 3.597,0 c 0.487,0 0.9,0.4122 0.9,0.8994 l 0,1.1617 10.08,2.286 6.858,1.1617 0.712,-0.6746 3.598,0 c 0.487,0 0.899,0.3748 0.899,0.862 l 0,0.712 3.336,0.5996 c 4.009,0.5621 8.094,1.1242 12.291,1.6114 l 1.987,0.1874 0.824,-0.8245 3.598,0 c 0.487,0 0.899,0.4123 0.899,0.8994 l 0,0.4497 5.696,0.5622 12.779,0.8619 0,-0.2249 c 0,-0.5246 0.412,-0.8994 0.9,-0.8994 l 3.597,0 c 0.487,0 0.9,0.3748 0.9,0.8994 l 0,0.4872 10.193,0.3748 10.23,-0.3748 0,-0.4872 c 0,-0.5246 0.413,-0.8994 0.9,-0.8994 l 3.597,0 c 0.488,0 0.9,0.3748 0.9,0.8994 l 0,0.2249 12.779,-0.8619 5.696,-0.5622 0,-0.4497 c 0,-0.4871 0.412,-0.8994 0.899,-0.8994 l 3.598,0 0.824,0.8245 1.987,-0.1874 c 4.197,-0.4872 8.281,-1.0493 12.291,-1.6114 l 3.336,-0.5996 0,-0.712 c 0,-0.4872 0.412,-0.862 0.899,-0.862 l 3.598,0 0.712,0.6746 6.857,-1.1617 10.081,-2.286 0,-1.1617 c 0,-0.4872 0.412,-0.8994 0.9,-0.8994 l 3.597,0 0.825,0.8619 3.86,-0.8619 14.727,-4.3096 0,-1.574 c 0,-0.4872 0.375,-0.8994 0.862,-0.8994 l 3.598,0 0.899,0.8994 4.122,-1.2367 12.742,-4.5719 0,-1.9112 c 0,-0.4872 0.412,-0.8994 0.899,-0.8994 l 3.598,0 0.862,0.8619 13.828,-4.9841 4.497,-1.7614 0,-2.136 c 0,-0.4872 0.375,-0.8994 0.862,-0.8994 l 3.598,0 c 0.524,0 0.899,0.4122 0.899,0.8994 l 0,0.0374 9.294,-3.5976 c 2.436,-0.5621 3.485,4.4596 3.785,6.9329 L 570.481,5.32144 586.22,17.5757 Z" clip-path="url(#clipEmfPath1)" style="fill:#000000;fill-opacity:1;fill-rule:evenodd;stroke:none"/> </svg>